<svg xmlns="http://www.w3.org/2000/svg" width="103.457" height="24" viewBox="0 0 103.457 24">
  <g id="Group_469" data-name="Group 469" transform="translate(769.699 -1236.426)">
    <g id="Group_468" data-name="Group 468" transform="translate(-753.528 1237.963)">
      <g id="Group_467" data-name="Group 467">
        <path id="Path_175" data-name="Path 175" d="M-747.22,1252.078a7.718,7.718,0,0,1-5.6,2.184,7.646,7.646,0,0,1-5.567-2.17,7.183,7.183,0,0,1-2.225-5.354,7.153,7.153,0,0,1,2.252-5.338,7.716,7.716,0,0,1,5.594-2.184,7.649,7.649,0,0,1,5.569,2.17,7.184,7.184,0,0,1,2.225,5.352A7.15,7.15,0,0,1-747.22,1252.078Zm-5.542-1.347a3.479,3.479,0,0,0,2.725-1.147,4.125,4.125,0,0,0,1.025-2.846,4.05,4.05,0,0,0-1.066-2.818,3.534,3.534,0,0,0-2.737-1.174,3.473,3.473,0,0,0-2.723,1.147,4.114,4.114,0,0,0-1.024,2.844,4.036,4.036,0,0,0,1.065,2.818A3.521,3.521,0,0,0-752.762,1250.731Z" transform="translate(760.608 -1235.79)" fill="#828ea0"/>
        <path id="Path_176" data-name="Path 176" d="M-750.148,1258.253v-18.769h4.1v2.076a5.342,5.342,0,0,1,4.5-2.345,6.2,6.2,0,0,1,4.637,2.023,7.608,7.608,0,0,1,1.942,5.5,7.565,7.565,0,0,1-1.928,5.462,6.215,6.215,0,0,1-4.651,2.008,5.644,5.644,0,0,1-4.5-2.158v6.2Zm5.057-8.642a3.226,3.226,0,0,0,2.494,1.12,3.269,3.269,0,0,0,2.508-1.12,4.164,4.164,0,0,0,1.025-2.926,4.085,4.085,0,0,0-1.025-2.871,3.268,3.268,0,0,0-2.508-1.121,3.225,3.225,0,0,0-2.494,1.121,4.194,4.194,0,0,0-1.01,2.924A4.117,4.117,0,0,0-745.091,1249.611Z" transform="translate(768.753 -1235.79)" fill="#828ea0"/>
        <path id="Path_177" data-name="Path 177" d="M-734.574,1255.682a4.5,4.5,0,0,1-3.115-.985,4.355,4.355,0,0,1-1.09-3.357v-6.85h-1.727v-3.506h1.727v-3.694h4.1v3.694h3.4v3.506h-3.4v6.176q0,1.4,1.32,1.4a4.2,4.2,0,0,0,2.024-.51v3.287A6.2,6.2,0,0,1-734.574,1255.682Z" transform="translate(776.261 -1237.29)" fill="#828ea0"/>
        <path id="Path_178" data-name="Path 178" d="M-733.517,1253.821v-14.454h4.1v14.454Z" transform="translate(781.704 -1235.673)" fill="#828ea0"/>
        <path id="Path_179" data-name="Path 179" d="M-716.051,1252.078a7.719,7.719,0,0,1-5.6,2.184,7.646,7.646,0,0,1-5.567-2.17,7.183,7.183,0,0,1-2.225-5.354,7.152,7.152,0,0,1,2.252-5.338,7.716,7.716,0,0,1,5.594-2.184,7.65,7.65,0,0,1,5.569,2.17,7.184,7.184,0,0,1,2.225,5.352A7.15,7.15,0,0,1-716.051,1252.078Zm-5.542-1.347a3.478,3.478,0,0,0,2.725-1.147,4.124,4.124,0,0,0,1.025-2.846,4.05,4.05,0,0,0-1.066-2.818,3.534,3.534,0,0,0-2.737-1.174,3.472,3.472,0,0,0-2.723,1.147,4.114,4.114,0,0,0-1.024,2.844,4.037,4.037,0,0,0,1.065,2.818A3.521,3.521,0,0,0-721.593,1250.731Z" transform="translate(784.879 -1235.79)" fill="#828ea0"/>
        <path id="Path_180" data-name="Path 180" d="M-718.979,1253.938v-14.454h4.1v2.051a5.272,5.272,0,0,1,4.233-2.32,4.63,4.63,0,0,1,3.614,1.43,5.655,5.655,0,0,1,1.293,3.936v9.356h-4.1v-8.063a3.269,3.269,0,0,0-.647-2.182,2.28,2.28,0,0,0-1.834-.756,2.4,2.4,0,0,0-1.875.756,3.14,3.14,0,0,0-.687,2.182v8.063Z" transform="translate(793.024 -1235.79)" fill="#828ea0"/>
      </g>
    </g>
    <path id="Path_181" data-name="Path 181" d="M-757.781,1237.353l-11.2,18.758h4.911l8.625-14.56a.616.616,0,0,0-.532-.93h-13.1a.619.619,0,0,1-.617-.617v-3.577h11.387A.616.616,0,0,1-757.781,1237.353Z" transform="translate(0)" fill="#ff0"/>
    <path id="Path_182" data-name="Path 182" d="M-733.22,1239.188l1.716-2.762h3.282a.575.575,0,0,1,.487.879l-1.716,2.762h-3.282A.575.575,0,0,1-733.22,1239.188Z" transform="translate(28.339)" fill="#ff0"/>
  </g>
</svg>
